<svg width="720" height="520" viewBox="0 0 720 520" fill="none" xmlns="http://www.w3.org/2000/svg"><rect width="720" height="520" rx="42" fill="#06130B"/><circle cx="155" cy="120" r="180" fill="#C3E65A" fill-opacity="0.12"/><circle cx="610" cy="425" r="210" fill="#41645A" fill-opacity="0.2"/><path d="M70 388 C150 270 260 315 340 228 C425 138 520 175 650 80" stroke="#C3E65A" stroke-width="7" stroke-linecap="round"/><path d="M70 388 C150 270 260 315 340 228 C425 138 520 175 650 80" stroke="#C3E65A" stroke-opacity="0.22" stroke-width="28" stroke-linecap="round"/><line x1="70" y1="410" x2="660" y2="410" stroke="#5D8A54" stroke-opacity="0.45" stroke-width="2"/><line x1="90" y1="80" x2="90" y2="430" stroke="#5D8A54" stroke-opacity="0.25" stroke-width="2"/><line x1="230" y1="80" x2="230" y2="430" stroke="#5D8A54" stroke-opacity="0.16" stroke-width="2"/><line x1="370" y1="80" x2="370" y2="430" stroke="#5D8A54" stroke-opacity="0.16" stroke-width="2"/><line x1="510" y1="80" x2="510" y2="430" stroke="#5D8A54" stroke-opacity="0.16" stroke-width="2"/><line x1="650" y1="80" x2="650" y2="430" stroke="#5D8A54" stroke-opacity="0.25" stroke-width="2"/><rect x="92" y="112" width="228" height="220" rx="30" fill="#0F2B1B" stroke="#C3E65A" stroke-opacity="0.45" stroke-width="3"/><circle cx="206" cy="184" r="58" fill="#193823" stroke="#C3E65A" stroke-width="4"/><text x="206" y="202" text-anchor="middle" fill="#C3E65A" font-family="Georgia, serif" font-size="58" font-weight="700">IN</text><text x="206" y="277" text-anchor="middle" fill="white" font-family="Arial, Helvetica, sans-serif" font-size="28" font-weight="700">Isaac Newton</text><text x="206" y="306" text-anchor="middle" fill="#CFE8BE" font-family="Arial, Helvetica, sans-serif" font-size="17">tangent approximation</text><rect x="400" y="112" width="228" height="220" rx="30" fill="#0F2B1B" stroke="#C3E65A" stroke-opacity="0.45" stroke-width="3"/><circle cx="514" cy="184" r="58" fill="#193823" stroke="#C3E65A" stroke-width="4"/><text x="514" y="202" text-anchor="middle" fill="#C3E65A" font-family="Georgia, serif" font-size="58" font-weight="700">JR</text><text x="514" y="277" text-anchor="middle" fill="white" font-family="Arial, Helvetica, sans-serif" font-size="28" font-weight="700">Joseph Raphson</text><text x="514" y="306" text-anchor="middle" fill="#CFE8BE" font-family="Arial, Helvetica, sans-serif" font-size="17">iterative method form</text><rect x="170" y="356" width="380" height="70" rx="22" fill="#C3E65A" fill-opacity="0.12" stroke="#C3E65A" stroke-opacity="0.38"/><text x="360" y="384" text-anchor="middle" fill="#C3E65A" font-family="Arial, Helvetica, sans-serif" font-size="20" font-weight="800">Newton-Raphson Root Finding</text><text x="360" y="410" text-anchor="middle" fill="#FFFFFF" font-family="Georgia, serif" font-size="27">xₙ₊₁ = xₙ − f(xₙ) / f′(xₙ)</text></svg>
